<mxfile host="app.diagrams.net" modified="2024-06-12T15:50:22.680Z" agent="Mozilla/5.0 (Windows NT 10.0; Win64; x64) AppleWebKit/537.36 (KHTML, like Gecko) Chrome/125.0.0.0 Safari/537.36" etag="LGRqVamSvorVhmWOfX1H" version="24.5.3" type="github">
  <diagram name="Page-1" id="Sfl_LSn1zozm88UbTG9z">
    <mxGraphModel dx="2327" dy="746" grid="1" gridSize="10" guides="1" tooltips="1" connect="1" arrows="1" fold="1" page="1" pageScale="1" pageWidth="827" pageHeight="1169" math="0" shadow="0">
      <root>
        <mxCell id="0" />
        <mxCell id="1" parent="0" />
        <mxCell id="LuaXDwO7O4lxuiRqnaFj-271" value="" style="rounded=1;whiteSpace=wrap;html=1;strokeWidth=3;fillColor=#DEFFE1;" vertex="1" parent="1">
          <mxGeometry x="60" y="167.89999999999998" width="390" height="360" as="geometry" />
        </mxCell>
        <mxCell id="LuaXDwO7O4lxuiRqnaFj-6" value="" style="rounded=0;whiteSpace=wrap;html=1;strokeWidth=3;fillColor=#FDE8FF;" vertex="1" parent="1">
          <mxGeometry x="60" y="97.9" width="400" height="40" as="geometry" />
        </mxCell>
        <mxCell id="LuaXDwO7O4lxuiRqnaFj-38" value="" style="endArrow=classic;html=1;rounded=0;strokeWidth=3;" edge="1" parent="1">
          <mxGeometry width="50" height="50" relative="1" as="geometry">
            <mxPoint x="-20" y="240.23" as="sourcePoint" />
            <mxPoint x="60" y="240.23" as="targetPoint" />
          </mxGeometry>
        </mxCell>
        <mxCell id="LuaXDwO7O4lxuiRqnaFj-39" value="" style="endArrow=classic;html=1;rounded=0;strokeWidth=3;" edge="1" parent="1">
          <mxGeometry width="50" height="50" relative="1" as="geometry">
            <mxPoint x="-20" y="277.9" as="sourcePoint" />
            <mxPoint x="60" y="277.9" as="targetPoint" />
          </mxGeometry>
        </mxCell>
        <mxCell id="LuaXDwO7O4lxuiRqnaFj-40" value="" style="endArrow=classic;html=1;rounded=0;strokeWidth=3;" edge="1" parent="1">
          <mxGeometry width="50" height="50" relative="1" as="geometry">
            <mxPoint x="-20" y="319.98" as="sourcePoint" />
            <mxPoint x="60" y="319.98" as="targetPoint" />
          </mxGeometry>
        </mxCell>
        <mxCell id="LuaXDwO7O4lxuiRqnaFj-41" value="" style="endArrow=classic;html=1;rounded=0;strokeWidth=3;" edge="1" parent="1">
          <mxGeometry width="50" height="50" relative="1" as="geometry">
            <mxPoint x="-20" y="422.07" as="sourcePoint" />
            <mxPoint x="60" y="422.07" as="targetPoint" />
          </mxGeometry>
        </mxCell>
        <mxCell id="LuaXDwO7O4lxuiRqnaFj-42" value="" style="endArrow=classic;html=1;rounded=0;strokeWidth=3;" edge="1" parent="1">
          <mxGeometry width="50" height="50" relative="1" as="geometry">
            <mxPoint x="-20" y="460" as="sourcePoint" />
            <mxPoint x="60" y="460" as="targetPoint" />
          </mxGeometry>
        </mxCell>
        <mxCell id="LuaXDwO7O4lxuiRqnaFj-45" value="" style="endArrow=classic;html=1;rounded=0;exitX=0.5;exitY=1;exitDx=0;exitDy=0;strokeWidth=3;" edge="1" parent="1">
          <mxGeometry width="50" height="50" relative="1" as="geometry">
            <mxPoint x="119.67000000000002" y="137.9" as="sourcePoint" />
            <mxPoint x="120" y="167.9" as="targetPoint" />
          </mxGeometry>
        </mxCell>
        <mxCell id="LuaXDwO7O4lxuiRqnaFj-46" value="" style="endArrow=classic;html=1;rounded=0;exitX=0.5;exitY=1;exitDx=0;exitDy=0;strokeWidth=3;" edge="1" parent="1">
          <mxGeometry width="50" height="50" relative="1" as="geometry">
            <mxPoint x="159.67000000000002" y="137.9" as="sourcePoint" />
            <mxPoint x="160" y="167.9" as="targetPoint" />
          </mxGeometry>
        </mxCell>
        <mxCell id="LuaXDwO7O4lxuiRqnaFj-47" value="" style="endArrow=classic;html=1;rounded=0;exitX=0.5;exitY=1;exitDx=0;exitDy=0;strokeWidth=3;" edge="1" parent="1">
          <mxGeometry width="50" height="50" relative="1" as="geometry">
            <mxPoint x="199.67000000000002" y="137.9" as="sourcePoint" />
            <mxPoint x="200" y="167.9" as="targetPoint" />
          </mxGeometry>
        </mxCell>
        <mxCell id="LuaXDwO7O4lxuiRqnaFj-48" value="" style="endArrow=classic;html=1;rounded=0;exitX=0.5;exitY=1;exitDx=0;exitDy=0;strokeWidth=3;" edge="1" parent="1">
          <mxGeometry width="50" height="50" relative="1" as="geometry">
            <mxPoint x="360" y="137.9" as="sourcePoint" />
            <mxPoint x="360" y="167.9" as="targetPoint" />
          </mxGeometry>
        </mxCell>
        <mxCell id="LuaXDwO7O4lxuiRqnaFj-49" value="" style="endArrow=classic;html=1;rounded=0;exitX=0.5;exitY=1;exitDx=0;exitDy=0;strokeWidth=3;" edge="1" parent="1">
          <mxGeometry width="50" height="50" relative="1" as="geometry">
            <mxPoint x="400" y="137.9" as="sourcePoint" />
            <mxPoint x="400" y="167.9" as="targetPoint" />
          </mxGeometry>
        </mxCell>
        <mxCell id="LuaXDwO7O4lxuiRqnaFj-51" value="" style="rounded=0;whiteSpace=wrap;html=1;strokeWidth=3;fillColor=#FFEADE;" vertex="1" parent="1">
          <mxGeometry x="490" y="170.4" width="50" height="360" as="geometry" />
        </mxCell>
        <mxCell id="LuaXDwO7O4lxuiRqnaFj-53" value="" style="endArrow=classic;html=1;rounded=0;strokeWidth=3;" edge="1" parent="1">
          <mxGeometry width="50" height="50" relative="1" as="geometry">
            <mxPoint x="450" y="240" as="sourcePoint" />
            <mxPoint x="490" y="240" as="targetPoint" />
          </mxGeometry>
        </mxCell>
        <mxCell id="LuaXDwO7O4lxuiRqnaFj-54" value="" style="endArrow=classic;html=1;rounded=0;strokeWidth=3;exitX=0.998;exitY=0.303;exitDx=0;exitDy=0;exitPerimeter=0;" edge="1" parent="1" source="LuaXDwO7O4lxuiRqnaFj-271">
          <mxGeometry width="50" height="50" relative="1" as="geometry">
            <mxPoint x="441.91" y="277.07" as="sourcePoint" />
            <mxPoint x="490" y="277" as="targetPoint" />
          </mxGeometry>
        </mxCell>
        <mxCell id="LuaXDwO7O4lxuiRqnaFj-55" value="" style="endArrow=classic;html=1;rounded=0;strokeWidth=3;" edge="1" parent="1">
          <mxGeometry width="50" height="50" relative="1" as="geometry">
            <mxPoint x="450" y="320" as="sourcePoint" />
            <mxPoint x="490" y="320" as="targetPoint" />
          </mxGeometry>
        </mxCell>
        <mxCell id="LuaXDwO7O4lxuiRqnaFj-56" value="" style="endArrow=classic;html=1;rounded=0;strokeWidth=3;exitX=0.995;exitY=0.705;exitDx=0;exitDy=0;exitPerimeter=0;" edge="1" parent="1" source="LuaXDwO7O4lxuiRqnaFj-271">
          <mxGeometry width="50" height="50" relative="1" as="geometry">
            <mxPoint x="440" y="422.9" as="sourcePoint" />
            <mxPoint x="490" y="423" as="targetPoint" />
          </mxGeometry>
        </mxCell>
        <mxCell id="LuaXDwO7O4lxuiRqnaFj-57" value="" style="endArrow=classic;html=1;rounded=0;strokeWidth=3;" edge="1" parent="1">
          <mxGeometry width="50" height="50" relative="1" as="geometry">
            <mxPoint x="450" y="460" as="sourcePoint" />
            <mxPoint x="490" y="460" as="targetPoint" />
          </mxGeometry>
        </mxCell>
        <mxCell id="LuaXDwO7O4lxuiRqnaFj-59" value="&lt;div&gt;&lt;font style=&quot;font-size: 14px;&quot; face=&quot;Times New Roman&quot;&gt;&lt;b&gt;A&lt;/b&gt;&lt;/font&gt;&lt;/div&gt;&lt;div&gt;&lt;font face=&quot;Times New Roman&quot; size=&quot;3&quot;&gt;&lt;b&gt;D&lt;/b&gt;&lt;/font&gt;&lt;/div&gt;&lt;div&gt;&lt;font face=&quot;Times New Roman&quot; size=&quot;3&quot;&gt;&lt;b&gt;D&lt;/b&gt;&lt;/font&gt;&lt;/div&gt;&lt;div&gt;&lt;font face=&quot;Times New Roman&quot; size=&quot;3&quot;&gt;&lt;b&gt;E&lt;/b&gt;&lt;/font&gt;&lt;/div&gt;&lt;div&gt;&lt;font face=&quot;Times New Roman&quot; size=&quot;3&quot;&gt;&lt;b&gt;R&lt;/b&gt;&lt;/font&gt;&lt;/div&gt;&lt;div&gt;&lt;font face=&quot;Times New Roman&quot; size=&quot;3&quot;&gt;&lt;b&gt;&lt;br&gt;&lt;/b&gt;&lt;/font&gt;&lt;/div&gt;&lt;div&gt;&lt;font face=&quot;Times New Roman&quot; size=&quot;3&quot;&gt;&lt;b&gt;T&lt;/b&gt;&lt;/font&gt;&lt;/div&gt;&lt;div&gt;&lt;font face=&quot;Times New Roman&quot; size=&quot;3&quot;&gt;&lt;b&gt;R&lt;/b&gt;&lt;/font&gt;&lt;/div&gt;&lt;div&gt;&lt;font face=&quot;Times New Roman&quot; size=&quot;3&quot;&gt;&lt;b&gt;E&lt;/b&gt;&lt;/font&gt;&lt;/div&gt;&lt;div&gt;&lt;font face=&quot;Times New Roman&quot; style=&quot;&quot; size=&quot;3&quot;&gt;&lt;b&gt;E&lt;/b&gt;&lt;/font&gt;&lt;br&gt;&lt;/div&gt;" style="text;html=1;align=center;verticalAlign=middle;whiteSpace=wrap;rounded=0;" vertex="1" parent="1">
          <mxGeometry x="500" y="257.9" width="30" height="195" as="geometry" />
        </mxCell>
        <mxCell id="LuaXDwO7O4lxuiRqnaFj-60" value="" style="rounded=0;whiteSpace=wrap;html=1;strokeWidth=3;fillColor=#FFEADE;" vertex="1" parent="1">
          <mxGeometry x="580" y="170.4" width="50" height="360" as="geometry" />
        </mxCell>
        <mxCell id="LuaXDwO7O4lxuiRqnaFj-61" value="" style="endArrow=classic;html=1;rounded=0;entryX=0;entryY=0.5;entryDx=0;entryDy=0;strokeWidth=3;" edge="1" parent="1" source="LuaXDwO7O4lxuiRqnaFj-51" target="LuaXDwO7O4lxuiRqnaFj-60">
          <mxGeometry width="50" height="50" relative="1" as="geometry">
            <mxPoint x="540" y="390" as="sourcePoint" />
            <mxPoint x="590" y="340" as="targetPoint" />
          </mxGeometry>
        </mxCell>
        <mxCell id="LuaXDwO7O4lxuiRqnaFj-62" value="&lt;div&gt;&lt;b&gt;&lt;font style=&quot;font-size: 14px;&quot; face=&quot;Times New Roman&quot;&gt;P&lt;/font&gt;&lt;/b&gt;&lt;/div&gt;&lt;div&gt;&lt;b&gt;&lt;font face=&quot;Times New Roman&quot; size=&quot;3&quot;&gt;R&lt;/font&gt;&lt;/b&gt;&lt;/div&gt;&lt;div&gt;&lt;b&gt;&lt;font face=&quot;Times New Roman&quot; size=&quot;3&quot;&gt;I&lt;/font&gt;&lt;/b&gt;&lt;/div&gt;&lt;div&gt;&lt;b&gt;&lt;font face=&quot;Times New Roman&quot; size=&quot;3&quot;&gt;O&lt;/font&gt;&lt;/b&gt;&lt;/div&gt;&lt;div&gt;&lt;b&gt;&lt;font face=&quot;Times New Roman&quot; size=&quot;3&quot;&gt;R&lt;/font&gt;&lt;/b&gt;&lt;/div&gt;&lt;div&gt;&lt;b&gt;&lt;font face=&quot;Times New Roman&quot; size=&quot;3&quot;&gt;I&lt;/font&gt;&lt;/b&gt;&lt;/div&gt;&lt;div&gt;&lt;b&gt;&lt;font face=&quot;Times New Roman&quot; size=&quot;3&quot;&gt;T&lt;/font&gt;&lt;/b&gt;&lt;/div&gt;&lt;div&gt;&lt;b&gt;&lt;font face=&quot;Times New Roman&quot; size=&quot;3&quot;&gt;Y&lt;/font&gt;&lt;/b&gt;&lt;/div&gt;&lt;div&gt;&lt;b&gt;&lt;font face=&quot;Times New Roman&quot; size=&quot;3&quot;&gt;&lt;br&gt;&lt;/font&gt;&lt;/b&gt;&lt;/div&gt;&lt;div&gt;&lt;b&gt;&lt;font face=&quot;Times New Roman&quot; size=&quot;3&quot;&gt;E&lt;/font&gt;&lt;/b&gt;&lt;/div&gt;&lt;div&gt;&lt;b&gt;&lt;font face=&quot;Times New Roman&quot; size=&quot;3&quot;&gt;N&lt;/font&gt;&lt;/b&gt;&lt;/div&gt;&lt;div&gt;&lt;b&gt;&lt;font face=&quot;Times New Roman&quot; size=&quot;3&quot;&gt;C&lt;/font&gt;&lt;/b&gt;&lt;/div&gt;&lt;div&gt;&lt;b&gt;&lt;font face=&quot;Times New Roman&quot; size=&quot;3&quot;&gt;O&lt;/font&gt;&lt;/b&gt;&lt;/div&gt;&lt;div&gt;&lt;b&gt;&lt;font face=&quot;Times New Roman&quot; size=&quot;3&quot;&gt;D&lt;/font&gt;&lt;/b&gt;&lt;/div&gt;&lt;div&gt;&lt;b&gt;&lt;font face=&quot;Times New Roman&quot; size=&quot;3&quot;&gt;E&lt;/font&gt;&lt;/b&gt;&lt;/div&gt;&lt;div&gt;&lt;b&gt;&lt;font face=&quot;Times New Roman&quot; style=&quot;&quot; size=&quot;3&quot;&gt;R&lt;/font&gt;&lt;br&gt;&lt;/b&gt;&lt;/div&gt;" style="text;html=1;align=center;verticalAlign=middle;whiteSpace=wrap;rounded=0;" vertex="1" parent="1">
          <mxGeometry x="585" y="205.4" width="40" height="310" as="geometry" />
        </mxCell>
        <mxCell id="LuaXDwO7O4lxuiRqnaFj-70" value="" style="endArrow=classic;html=1;rounded=0;strokeWidth=3;" edge="1" parent="1">
          <mxGeometry width="50" height="50" relative="1" as="geometry">
            <mxPoint x="630" y="352.52" as="sourcePoint" />
            <mxPoint x="660" y="353" as="targetPoint" />
          </mxGeometry>
        </mxCell>
        <mxCell id="LuaXDwO7O4lxuiRqnaFj-71" value="" style="shape=curlyBracket;whiteSpace=wrap;html=1;rounded=1;labelPosition=left;verticalLabelPosition=middle;align=right;verticalAlign=middle;strokeWidth=3;" vertex="1" parent="1">
          <mxGeometry x="-50" y="220" width="20" height="250" as="geometry" />
        </mxCell>
        <mxCell id="LuaXDwO7O4lxuiRqnaFj-72" value="&lt;font style=&quot;font-size: 18px;&quot; face=&quot;Times New Roman&quot;&gt;&lt;b&gt;32 BIT DATA INPUT&lt;/b&gt;&lt;/font&gt;" style="text;html=1;align=center;verticalAlign=middle;whiteSpace=wrap;rounded=0;flipV=1;rotation=-90;" vertex="1" parent="1">
          <mxGeometry x="-160" y="330" width="190" height="30" as="geometry" />
        </mxCell>
        <mxCell id="LuaXDwO7O4lxuiRqnaFj-73" value="&lt;font style=&quot;font-size: 18px;&quot; face=&quot;Times New Roman&quot;&gt;&lt;b&gt;10 BIT DATA OUTPUT&lt;/b&gt;&lt;/font&gt;" style="text;html=1;align=center;verticalAlign=middle;whiteSpace=wrap;rounded=0;flipV=1;rotation=-90;" vertex="1" parent="1">
          <mxGeometry x="580" y="340.4" width="190" height="30" as="geometry" />
        </mxCell>
        <mxCell id="LuaXDwO7O4lxuiRqnaFj-227" value="" style="shape=trapezoid;perimeter=trapezoidPerimeter;whiteSpace=wrap;html=1;fixedSize=1;rotation=90;strokeWidth=3;" vertex="1" parent="1">
          <mxGeometry x="161.69" y="255.64999999999998" width="222.12" height="65.46" as="geometry" />
        </mxCell>
        <mxCell id="LuaXDwO7O4lxuiRqnaFj-228" value="" style="endArrow=classic;html=1;rounded=0;entryX=0.25;entryY=1;entryDx=0;entryDy=0;strokeWidth=3;" edge="1" parent="1" target="LuaXDwO7O4lxuiRqnaFj-227">
          <mxGeometry width="50" height="50" relative="1" as="geometry">
            <mxPoint x="190" y="232.89999999999998" as="sourcePoint" />
            <mxPoint x="620" y="472.9" as="targetPoint" />
          </mxGeometry>
        </mxCell>
        <mxCell id="LuaXDwO7O4lxuiRqnaFj-229" value="" style="endArrow=classic;html=1;rounded=0;entryX=0.75;entryY=1;entryDx=0;entryDy=0;strokeWidth=3;" edge="1" parent="1" target="LuaXDwO7O4lxuiRqnaFj-227">
          <mxGeometry width="50" height="50" relative="1" as="geometry">
            <mxPoint x="190" y="343.9" as="sourcePoint" />
            <mxPoint x="620" y="472.9" as="targetPoint" />
          </mxGeometry>
        </mxCell>
        <mxCell id="LuaXDwO7O4lxuiRqnaFj-230" value="&lt;font style=&quot;font-size: 14px;&quot; face=&quot;Times New Roman&quot;&gt;&lt;b&gt;0&lt;/b&gt;&lt;/font&gt;" style="text;html=1;align=center;verticalAlign=middle;whiteSpace=wrap;rounded=0;strokeWidth=3;" vertex="1" parent="1">
          <mxGeometry x="220" y="217.89999999999998" width="60" height="30" as="geometry" />
        </mxCell>
        <mxCell id="LuaXDwO7O4lxuiRqnaFj-231" value="&lt;font style=&quot;font-size: 14px;&quot; face=&quot;Times New Roman&quot;&gt;&lt;b&gt;1&lt;/b&gt;&lt;/font&gt;" style="text;html=1;align=center;verticalAlign=middle;whiteSpace=wrap;rounded=0;strokeWidth=3;" vertex="1" parent="1">
          <mxGeometry x="220" y="332.9" width="60" height="30" as="geometry" />
        </mxCell>
        <mxCell id="LuaXDwO7O4lxuiRqnaFj-232" value="&lt;font style=&quot;font-size: 14px;&quot; face=&quot;Times New Roman&quot;&gt;&lt;b&gt;0&lt;/b&gt;&lt;/font&gt;" style="text;html=1;align=center;verticalAlign=middle;whiteSpace=wrap;rounded=0;" vertex="1" parent="1">
          <mxGeometry x="160" y="217.89999999999998" width="30" height="30" as="geometry" />
        </mxCell>
        <mxCell id="LuaXDwO7O4lxuiRqnaFj-233" value="&lt;font style=&quot;font-size: 14px;&quot; face=&quot;Times New Roman&quot;&gt;&lt;b&gt;From Memory/LUT&lt;/b&gt;&lt;/font&gt;" style="text;html=1;align=center;verticalAlign=middle;whiteSpace=wrap;rounded=0;" vertex="1" parent="1">
          <mxGeometry x="40" y="332.9" width="165" height="30" as="geometry" />
        </mxCell>
        <mxCell id="LuaXDwO7O4lxuiRqnaFj-234" value="" style="shape=trapezoid;perimeter=trapezoidPerimeter;whiteSpace=wrap;html=1;fixedSize=1;rotation=90;strokeWidth=3;" vertex="1" parent="1">
          <mxGeometry x="181.69" y="285.65" width="222.12" height="65.46" as="geometry" />
        </mxCell>
        <mxCell id="LuaXDwO7O4lxuiRqnaFj-235" value="" style="endArrow=classic;html=1;rounded=0;entryX=0.25;entryY=1;entryDx=0;entryDy=0;strokeWidth=3;" edge="1" parent="1" target="LuaXDwO7O4lxuiRqnaFj-234">
          <mxGeometry width="50" height="50" relative="1" as="geometry">
            <mxPoint x="210" y="262.9" as="sourcePoint" />
            <mxPoint x="640" y="502.9" as="targetPoint" />
          </mxGeometry>
        </mxCell>
        <mxCell id="LuaXDwO7O4lxuiRqnaFj-236" value="" style="endArrow=classic;html=1;rounded=0;entryX=0.75;entryY=1;entryDx=0;entryDy=0;strokeWidth=3;" edge="1" parent="1" target="LuaXDwO7O4lxuiRqnaFj-234">
          <mxGeometry width="50" height="50" relative="1" as="geometry">
            <mxPoint x="210" y="373.9" as="sourcePoint" />
            <mxPoint x="640" y="502.9" as="targetPoint" />
          </mxGeometry>
        </mxCell>
        <mxCell id="LuaXDwO7O4lxuiRqnaFj-237" value="&lt;font style=&quot;font-size: 14px;&quot; face=&quot;Times New Roman&quot;&gt;&lt;b&gt;0&lt;/b&gt;&lt;/font&gt;" style="text;html=1;align=center;verticalAlign=middle;whiteSpace=wrap;rounded=0;strokeWidth=3;" vertex="1" parent="1">
          <mxGeometry x="240" y="247.89999999999998" width="60" height="30" as="geometry" />
        </mxCell>
        <mxCell id="LuaXDwO7O4lxuiRqnaFj-238" value="&lt;font style=&quot;font-size: 14px;&quot; face=&quot;Times New Roman&quot;&gt;&lt;b&gt;1&lt;/b&gt;&lt;/font&gt;" style="text;html=1;align=center;verticalAlign=middle;whiteSpace=wrap;rounded=0;strokeWidth=3;" vertex="1" parent="1">
          <mxGeometry x="240" y="362.9" width="60" height="30" as="geometry" />
        </mxCell>
        <mxCell id="LuaXDwO7O4lxuiRqnaFj-239" value="&lt;font style=&quot;font-size: 14px;&quot; face=&quot;Times New Roman&quot;&gt;&lt;b&gt;0&lt;/b&gt;&lt;/font&gt;" style="text;html=1;align=center;verticalAlign=middle;whiteSpace=wrap;rounded=0;" vertex="1" parent="1">
          <mxGeometry x="180" y="247.89999999999998" width="30" height="30" as="geometry" />
        </mxCell>
        <mxCell id="LuaXDwO7O4lxuiRqnaFj-240" value="&lt;font style=&quot;font-size: 14px;&quot; face=&quot;Times New Roman&quot;&gt;&lt;b&gt;From Memory/LUT&lt;/b&gt;&lt;/font&gt;" style="text;html=1;align=center;verticalAlign=middle;whiteSpace=wrap;rounded=0;" vertex="1" parent="1">
          <mxGeometry x="60" y="362.9" width="165" height="30" as="geometry" />
        </mxCell>
        <mxCell id="LuaXDwO7O4lxuiRqnaFj-241" value="" style="shape=trapezoid;perimeter=trapezoidPerimeter;whiteSpace=wrap;html=1;fixedSize=1;rotation=90;strokeWidth=3;" vertex="1" parent="1">
          <mxGeometry x="201.69" y="315.65" width="222.12" height="65.46" as="geometry" />
        </mxCell>
        <mxCell id="LuaXDwO7O4lxuiRqnaFj-242" value="" style="endArrow=classic;html=1;rounded=0;entryX=0.25;entryY=1;entryDx=0;entryDy=0;strokeWidth=3;" edge="1" parent="1" target="LuaXDwO7O4lxuiRqnaFj-241">
          <mxGeometry width="50" height="50" relative="1" as="geometry">
            <mxPoint x="230" y="292.9" as="sourcePoint" />
            <mxPoint x="660" y="532.9" as="targetPoint" />
          </mxGeometry>
        </mxCell>
        <mxCell id="LuaXDwO7O4lxuiRqnaFj-243" value="" style="endArrow=classic;html=1;rounded=0;entryX=0.75;entryY=1;entryDx=0;entryDy=0;strokeWidth=3;" edge="1" parent="1" target="LuaXDwO7O4lxuiRqnaFj-241">
          <mxGeometry width="50" height="50" relative="1" as="geometry">
            <mxPoint x="230" y="403.9" as="sourcePoint" />
            <mxPoint x="660" y="532.9" as="targetPoint" />
          </mxGeometry>
        </mxCell>
        <mxCell id="LuaXDwO7O4lxuiRqnaFj-244" value="&lt;font style=&quot;font-size: 14px;&quot; face=&quot;Times New Roman&quot;&gt;&lt;b&gt;0&lt;/b&gt;&lt;/font&gt;" style="text;html=1;align=center;verticalAlign=middle;whiteSpace=wrap;rounded=0;strokeWidth=3;" vertex="1" parent="1">
          <mxGeometry x="260" y="277.9" width="60" height="30" as="geometry" />
        </mxCell>
        <mxCell id="LuaXDwO7O4lxuiRqnaFj-245" value="&lt;font style=&quot;font-size: 14px;&quot; face=&quot;Times New Roman&quot;&gt;&lt;b&gt;1&lt;/b&gt;&lt;/font&gt;" style="text;html=1;align=center;verticalAlign=middle;whiteSpace=wrap;rounded=0;strokeWidth=3;" vertex="1" parent="1">
          <mxGeometry x="260" y="392.9" width="60" height="30" as="geometry" />
        </mxCell>
        <mxCell id="LuaXDwO7O4lxuiRqnaFj-246" value="&lt;font style=&quot;font-size: 14px;&quot; face=&quot;Times New Roman&quot;&gt;&lt;b&gt;0&lt;/b&gt;&lt;/font&gt;" style="text;html=1;align=center;verticalAlign=middle;whiteSpace=wrap;rounded=0;" vertex="1" parent="1">
          <mxGeometry x="200" y="277.9" width="30" height="30" as="geometry" />
        </mxCell>
        <mxCell id="LuaXDwO7O4lxuiRqnaFj-247" value="&lt;font style=&quot;font-size: 14px;&quot; face=&quot;Times New Roman&quot;&gt;&lt;b&gt;From Memory/LUT&lt;/b&gt;&lt;/font&gt;" style="text;html=1;align=center;verticalAlign=middle;whiteSpace=wrap;rounded=0;" vertex="1" parent="1">
          <mxGeometry x="80" y="392.9" width="165" height="30" as="geometry" />
        </mxCell>
        <mxCell id="LuaXDwO7O4lxuiRqnaFj-248" value="" style="shape=trapezoid;perimeter=trapezoidPerimeter;whiteSpace=wrap;html=1;fixedSize=1;rotation=90;strokeWidth=3;" vertex="1" parent="1">
          <mxGeometry x="219.79" y="343.15" width="222.12" height="65.46" as="geometry" />
        </mxCell>
        <mxCell id="LuaXDwO7O4lxuiRqnaFj-249" value="" style="endArrow=classic;html=1;rounded=0;entryX=0.25;entryY=1;entryDx=0;entryDy=0;strokeWidth=3;" edge="1" parent="1" target="LuaXDwO7O4lxuiRqnaFj-248">
          <mxGeometry width="50" height="50" relative="1" as="geometry">
            <mxPoint x="248.1" y="320.4" as="sourcePoint" />
            <mxPoint x="678.1" y="560.4" as="targetPoint" />
          </mxGeometry>
        </mxCell>
        <mxCell id="LuaXDwO7O4lxuiRqnaFj-250" value="" style="endArrow=classic;html=1;rounded=0;entryX=0.75;entryY=1;entryDx=0;entryDy=0;strokeWidth=3;" edge="1" parent="1" target="LuaXDwO7O4lxuiRqnaFj-248">
          <mxGeometry width="50" height="50" relative="1" as="geometry">
            <mxPoint x="248.1" y="431.4" as="sourcePoint" />
            <mxPoint x="678.1" y="560.4" as="targetPoint" />
          </mxGeometry>
        </mxCell>
        <mxCell id="LuaXDwO7O4lxuiRqnaFj-251" value="&lt;font style=&quot;font-size: 14px;&quot; face=&quot;Times New Roman&quot;&gt;&lt;b&gt;0&lt;/b&gt;&lt;/font&gt;" style="text;html=1;align=center;verticalAlign=middle;whiteSpace=wrap;rounded=0;strokeWidth=3;" vertex="1" parent="1">
          <mxGeometry x="278.1" y="305.4" width="60" height="30" as="geometry" />
        </mxCell>
        <mxCell id="LuaXDwO7O4lxuiRqnaFj-252" value="&lt;font style=&quot;font-size: 14px;&quot; face=&quot;Times New Roman&quot;&gt;&lt;b&gt;1&lt;/b&gt;&lt;/font&gt;" style="text;html=1;align=center;verticalAlign=middle;whiteSpace=wrap;rounded=0;strokeWidth=3;" vertex="1" parent="1">
          <mxGeometry x="278.1" y="420.4" width="60" height="30" as="geometry" />
        </mxCell>
        <mxCell id="LuaXDwO7O4lxuiRqnaFj-253" value="&lt;font style=&quot;font-size: 14px;&quot; face=&quot;Times New Roman&quot;&gt;&lt;b&gt;0&lt;/b&gt;&lt;/font&gt;" style="text;html=1;align=center;verticalAlign=middle;whiteSpace=wrap;rounded=0;" vertex="1" parent="1">
          <mxGeometry x="218.1" y="305.4" width="30" height="30" as="geometry" />
        </mxCell>
        <mxCell id="LuaXDwO7O4lxuiRqnaFj-254" value="&lt;font style=&quot;font-size: 14px;&quot; face=&quot;Times New Roman&quot;&gt;&lt;b&gt;From Memory/LUT&lt;/b&gt;&lt;/font&gt;" style="text;html=1;align=center;verticalAlign=middle;whiteSpace=wrap;rounded=0;" vertex="1" parent="1">
          <mxGeometry x="98.1" y="420.4" width="165" height="30" as="geometry" />
        </mxCell>
        <mxCell id="LuaXDwO7O4lxuiRqnaFj-262" value="" style="shape=trapezoid;perimeter=trapezoidPerimeter;whiteSpace=wrap;html=1;fixedSize=1;rotation=90;strokeWidth=3;" vertex="1" parent="1">
          <mxGeometry x="242.54" y="373.15" width="222.12" height="65.46" as="geometry" />
        </mxCell>
        <mxCell id="LuaXDwO7O4lxuiRqnaFj-263" value="" style="endArrow=classic;html=1;rounded=0;entryX=0.25;entryY=1;entryDx=0;entryDy=0;strokeWidth=3;" edge="1" parent="1" target="LuaXDwO7O4lxuiRqnaFj-262">
          <mxGeometry width="50" height="50" relative="1" as="geometry">
            <mxPoint x="270.85" y="350.4" as="sourcePoint" />
            <mxPoint x="700.85" y="590.4" as="targetPoint" />
          </mxGeometry>
        </mxCell>
        <mxCell id="LuaXDwO7O4lxuiRqnaFj-264" value="" style="endArrow=classic;html=1;rounded=0;entryX=0.75;entryY=1;entryDx=0;entryDy=0;strokeWidth=3;" edge="1" parent="1" target="LuaXDwO7O4lxuiRqnaFj-262">
          <mxGeometry width="50" height="50" relative="1" as="geometry">
            <mxPoint x="270.85" y="461.4" as="sourcePoint" />
            <mxPoint x="700.85" y="590.4" as="targetPoint" />
          </mxGeometry>
        </mxCell>
        <mxCell id="LuaXDwO7O4lxuiRqnaFj-265" value="&lt;font style=&quot;font-size: 14px;&quot; face=&quot;Times New Roman&quot;&gt;&lt;b&gt;0&lt;/b&gt;&lt;/font&gt;" style="text;html=1;align=center;verticalAlign=middle;whiteSpace=wrap;rounded=0;strokeWidth=3;" vertex="1" parent="1">
          <mxGeometry x="300.85" y="335.4" width="60" height="30" as="geometry" />
        </mxCell>
        <mxCell id="LuaXDwO7O4lxuiRqnaFj-266" value="&lt;font style=&quot;font-size: 14px;&quot; face=&quot;Times New Roman&quot;&gt;&lt;b&gt;1&lt;/b&gt;&lt;/font&gt;" style="text;html=1;align=center;verticalAlign=middle;whiteSpace=wrap;rounded=0;strokeWidth=3;" vertex="1" parent="1">
          <mxGeometry x="300.85" y="450.4" width="60" height="30" as="geometry" />
        </mxCell>
        <mxCell id="LuaXDwO7O4lxuiRqnaFj-267" value="&lt;font style=&quot;font-size: 14px;&quot; face=&quot;Times New Roman&quot;&gt;&lt;b&gt;0&lt;/b&gt;&lt;/font&gt;" style="text;html=1;align=center;verticalAlign=middle;whiteSpace=wrap;rounded=0;" vertex="1" parent="1">
          <mxGeometry x="240.85" y="335.4" width="30" height="30" as="geometry" />
        </mxCell>
        <mxCell id="LuaXDwO7O4lxuiRqnaFj-268" value="&lt;font style=&quot;font-size: 14px;&quot; face=&quot;Times New Roman&quot;&gt;&lt;b&gt;From Memory/LUT&lt;/b&gt;&lt;/font&gt;" style="text;html=1;align=center;verticalAlign=middle;whiteSpace=wrap;rounded=0;" vertex="1" parent="1">
          <mxGeometry x="120.85" y="450.4" width="165" height="30" as="geometry" />
        </mxCell>
        <mxCell id="LuaXDwO7O4lxuiRqnaFj-269" value="" style="shape=curlyBracket;whiteSpace=wrap;html=1;rounded=1;flipH=1;labelPosition=right;verticalLabelPosition=middle;align=left;verticalAlign=middle;rotation=-30;strokeWidth=3;" vertex="1" parent="1">
          <mxGeometry x="370" y="162.11" width="20" height="159" as="geometry" />
        </mxCell>
        <mxCell id="LuaXDwO7O4lxuiRqnaFj-270" value="&lt;font style=&quot;font-size: 14px;&quot; face=&quot;Times New Roman&quot;&gt;&lt;b&gt;32 units of this module&lt;/b&gt;&lt;/font&gt;" style="text;html=1;align=center;verticalAlign=middle;whiteSpace=wrap;rounded=0;rotation=60;" vertex="1" parent="1">
          <mxGeometry x="330" y="225.64999999999998" width="150" height="30" as="geometry" />
        </mxCell>
        <mxCell id="LuaXDwO7O4lxuiRqnaFj-274" value="&lt;font style=&quot;font-size: 14px;&quot; face=&quot;Times New Roman&quot;&gt;&lt;b&gt;Memory / LUT&amp;nbsp;&lt;/b&gt;&lt;/font&gt;" style="text;html=1;align=center;verticalAlign=middle;whiteSpace=wrap;rounded=0;" vertex="1" parent="1">
          <mxGeometry x="195" y="102.9" width="130" height="30" as="geometry" />
        </mxCell>
      </root>
    </mxGraphModel>
  </diagram>
</mxfile>
